# xmcd
#
# Track frame offsets:
#	150
#	37633
#	69627
#	117500
#	143334
#	189367
#	237442
#	279325
#
# Disc length: 4345 seconds
#
# Revision: 1
# Processed by: cddbd v1.5.2PL0 Copyright (c) Steve Scherf et al.
# Submitted via: audiograbber 1.83.01
#
DISCID=6510f708
DTITLE=Wentus Blues Band feat Phil Guy - The last of the big time spenders
DYEAR=2002
DGENRE=
TTITLE0=Help Me
TTITLE1=Oh, Darling
TTITLE2=Texas Flood
TTITLE3=Killing Floor
TTITLE4=Don't Even Know My Name
TTITLE5=Good Time Charlie
TTITLE6=Five Long Years
TTITLE7=Can't Stand It (When You Touch Me)
EXTD=
EXTT0=
EXTT1=
EXTT2=
EXTT3=
EXTT4=
EXTT5=
EXTT6=
EXTT7=
PLAYORDER=
